<?xml version="1.0" encoding="UTF-8" standalone="no"?>
<!-- Created with Inkscape (http://www.inkscape.org/) -->

<svg
   width="16"
   height="16"
   viewBox="0 0 71.111111 71.111111"
   version="1.1"
   id="svg1"
   inkscape:version="1.4 (86a8ad7, 2024-10-11)"
   sodipodi:docname="e08_cat_logo_piirustus.svg"
   xmlns:inkscape="http://www.inkscape.org/namespaces/inkscape"
   xmlns:sodipodi="http://sodipodi.sourceforge.net/DTD/sodipodi-0.dtd"
   xmlns="http://www.w3.org/2000/svg"
   xmlns:svg="http://www.w3.org/2000/svg">
  <sodipodi:namedview
     id="namedview1"
     pagecolor="#ffffff"
     bordercolor="#000000"
     borderopacity="0.25"
     inkscape:showpageshadow="2"
     inkscape:pageopacity="0.0"
     inkscape:pagecheckerboard="0"
     inkscape:deskcolor="#d1d1d1"
     inkscape:document-units="mm"
     showgrid="true"
     inkscape:zoom="33.268012"
     inkscape:cx="10.114821"
     inkscape:cy="6.9586365"
     inkscape:window-width="1920"
     inkscape:window-height="991"
     inkscape:window-x="-9"
     inkscape:window-y="-9"
     inkscape:window-maximized="1"
     inkscape:current-layer="layer3">
    <inkscape:grid
       id="grid2"
       units="mm"
       originx="-57.792011"
       originy="-54.055302"
       spacingx="0.99999998"
       spacingy="1"
       empcolor="#0099e5"
       empopacity="0.30196078"
       color="#0099e5"
       opacity="0.14901961"
       empspacing="5"
       enabled="true"
       visible="true" />
  </sodipodi:namedview>
  <defs
     id="defs1">
    <inkscape:path-effect
       effect="bend_path"
       id="path-effect12"
       is_visible="true"
       lpeversion="1"
       bendpath="m 58.806298,117.27672 c 18.380924,13.76703 46.631212,18.30803 67.807742,-1.43966"
       prop_scale="1"
       scale_y_rel="false"
       vertical="false"
       hide_knot="false"
       bendpath-nodetypes="cc" />
    <linearGradient
       id="swatch12"
       inkscape:swatch="solid">
      <stop
         style="stop-color:#b22222;stop-opacity:1;"
         offset="0"
         id="stop12" />
    </linearGradient>
    <inkscape:path-effect
       effect="bend_path"
       id="path-effect1"
       is_visible="true"
       lpeversion="1"
       bendpath="m 212.46018,460.67605 c 115.65763,101.32777 222.77849,40.43132 265.89078,-17.79488"
       prop_scale="1"
       scale_y_rel="false"
       vertical="false"
       hide_knot="false"
       bendpath-nodetypes="cc" />
    <rect
       x="200.07207"
       y="439.58142"
       width="333.29312"
       height="112.0596"
       id="rect1" />
  </defs>
  <g
     inkscape:groupmode="layer"
     id="layer5"
     inkscape:label="Ears"
     transform="translate(-57.792012,-54.0553)">
    <path
       style="fill:#d2b48c;stroke-width:0.264583"
       d="m 107.163,65.529217 c 11.19794,-9.161954 15.23811,-9.225577 15.23811,-9.225577 0.69987,-0.0612 1.43155,-0.329633 2.13142,0.286313 0.88744,0.338647 0.12725,5.620181 0.19087,8.430271 l -0.50899,10.688944 z"
       id="path2-5"
       sodipodi:nodetypes="cccccc" />
    <path
       style="fill:#d2b48c;stroke-width:0.264583"
       d="m 78.773696,65.7622 c -11.197942,-9.161954 -15.23811,-9.225577 -15.23811,-9.225577 -0.699872,-0.0612 -1.431555,-0.329633 -2.131427,0.286313 -0.887438,0.338647 -0.127248,5.620181 -0.190872,8.430271 l 0.508997,10.688944 z"
       id="path2"
       sodipodi:nodetypes="cccccc" />
  </g>
  <g
     inkscape:label="Head"
     inkscape:groupmode="layer"
     id="layer1"
     transform="translate(-57.792012,-54.0553)">
    <ellipse
       style="fill:#ffdead;stroke-width:0.26015"
       id="path1"
       cx="93.216507"
       cy="85.931213"
       rx="34.420948"
       ry="25.195372" />
  </g>
  <g
     inkscape:groupmode="layer"
     id="layer6"
     inkscape:label="Tongue"
     transform="translate(-57.792012,-54.0553)">
    <path
       style="fill:#cd5c5c;stroke-width:0.278745"
       d="m 89.100216,95.175687 c 0,0 0.684359,9.304273 4.071546,9.312813 3.387187,0.009 4.116533,-9.287845 4.116533,-9.287845 z"
       id="path5"
       sodipodi:nodetypes="czcc" />
  </g>
  <g
     inkscape:groupmode="layer"
     id="layer2"
     inkscape:label="Mouth"
     transform="translate(-57.792012,-54.0553)">
    <path
       style="fill:#000000;stroke-width:0.150259"
       id="path4"
       sodipodi:type="arc"
       sodipodi:cx="87.842697"
       sodipodi:cy="94.464676"
       sodipodi:rx="5.7262201"
       sodipodi:ry="3.9549553"
       sodipodi:start="0"
       sodipodi:end="4.1072108"
       sodipodi:arc-type="slice"
       d="m 93.568917,94.464676 a 5.7262201,3.9549553 0 0 1 -4.57891,3.874757 5.7262201,3.9549553 0 0 1 -6.413779,-2.322059 5.7262201,3.9549553 0 0 1 2.008773,-4.805256 l 3.257696,3.252558 z" />
    <ellipse
       style="fill:#ffdead;stroke-width:0.197632"
       id="path6"
       ry="3.5527568"
       rx="5.2587743"
       cy="94.464676"
       cx="87.764793" />
    <path
       style="fill:#000000;stroke-width:0.150259"
       id="path4-5"
       sodipodi:type="arc"
       sodipodi:cx="-98.686089"
       sodipodi:cy="94.480072"
       sodipodi:rx="5.7262201"
       sodipodi:ry="3.9549553"
       sodipodi:start="0"
       sodipodi:end="4.1072108"
       sodipodi:arc-type="slice"
       d="m -92.959868,94.480072 a 5.7262201,3.9549553 0 0 1 -4.578911,3.874758 5.7262201,3.9549553 0 0 1 -6.413781,-2.32206 5.7262201,3.9549553 0 0 1 2.00878,-4.805256 l 3.257691,3.252558 z"
       transform="scale(-1,1)" />
    <ellipse
       style="fill:#ffdead;stroke-width:0.197632"
       id="path6-1"
       ry="3.5527568"
       rx="5.2587743"
       cy="94.480072"
       cx="-98.763992"
       transform="scale(-1,1)" />
  </g>
  <g
     inkscape:groupmode="layer"
     id="layer4"
     inkscape:label="Taso 3"
     transform="translate(-57.792012,-54.0553)">
    <path
       style="fill:#d2b48c;stroke-width:0.250619"
       d="m 59.146791,82.13752 10.309202,0.711062 c 0.699614,0.09364 1.607432,0.114648 1.894748,1.152881 0.0073,1.289907 -1.006644,1.194469 -1.485112,1.260172 l -11.070073,0.669581 c 0.01491,-1.374374 0.09373,-2.403416 0.351235,-3.793696 z"
       id="path3"
       sodipodi:nodetypes="cccccc" />
    <path
       style="fill:#d2b48c;stroke-width:0.233434"
       d="m 62.144843,96.780742 7.34173,-0.598588 c 0.60696,-0.09364 1.397377,-0.06966 1.643814,-1.152881 0.0094,-1.256165 -0.873327,-1.194469 -1.288429,-1.260172 L 60.226726,93.09952 c 0.461873,1.223856 1.274579,2.626418 1.918117,3.681222 z"
       id="path3-2"
       sodipodi:nodetypes="cccccc" />
    <path
       style="fill:#d2b48c;stroke-width:0.233434"
       d="m 124.31499,96.74642 -7.34173,-0.598588 c -0.60696,-0.09364 -1.22867,-0.114652 -1.7113,-1.119139 -0.15565,-1.222423 0.94081,-1.228211 1.35591,-1.293914 l 9.61523,-0.669581 c -0.46187,1.223856 -1.27458,2.626418 -1.91811,3.681222 z"
       id="path3-2-8"
       sodipodi:nodetypes="cccccc" />
    <path
       style="fill:#d2b48c;stroke-width:0.252407"
       d="m 127.28395,82.13528 -10.4568,0.711062 c -0.70964,0.09364 -1.56023,0.125895 -1.92188,1.152881 0.013,1.27866 1.02106,1.194469 1.50638,1.260172 l 11.22857,0.669581 c -0.0151,-1.374374 -0.0951,-2.403416 -0.35627,-3.793696 z"
       id="path3-1"
       sodipodi:nodetypes="cccccc" />
    <path
       style="fill:#d2b48c;stroke-width:0.264583"
       d="m 59.598423,91.338465 11.152599,-0.744804 c 0.779748,-0.09364 1.657174,-0.114648 2.111773,-1.152881 0.09234,-1.233671 -1.121946,-1.194469 -1.655217,-1.260172 L 58.869537,87.511027 c 0.08973,1.481411 0.385649,2.535205 0.728886,3.827438 z"
       id="path3-5"
       sodipodi:nodetypes="cccccc" />
    <path
       style="fill:#d2b48c;stroke-width:0.264583"
       d="m 126.84213,91.334036 -11.1526,-0.744804 c -0.77975,-0.09364 -1.66842,-0.103401 -2.11177,-1.152881 -0.17108,-1.244918 1.12194,-1.194469 1.65522,-1.260172 l 12.33804,-0.669581 c -0.0897,1.481411 -0.38565,2.535205 -0.72889,3.827438 z"
       id="path3-5-1"
       sodipodi:nodetypes="cccccc" />
  </g>
  <g
     inkscape:groupmode="layer"
     id="layer3"
     inkscape:label="Text"
     transform="translate(-57.792012,-54.0553)">
    <path
       style="font-size:16.9333px;font-family:HGGyoshotai;-inkscape-font-specification:HGGyoshotai;fill:#b22222;stroke-width:0.265"
       d="m 66.178606,114.20778 c 0.71991,0.51072 1.18018,1.06748 1.381141,1.69768 -0.07904,0.31078 -0.318695,0.81233 -0.718757,1.49805 -0.06439,0.0647 -0.128872,0.12932 -0.193436,0.19389 -0.275744,0.19669 -0.428759,0.1326 -0.452155,-0.18992 -0.04144,-0.74752 -0.08281,-1.23348 -0.145122,-1.48235 -0.13863,-0.29311 -0.339704,-0.52319 -0.605835,-0.69318 -0.289969,-0.13278 -0.583951,-0.21892 -0.883959,-0.2585 -0.933785,0.0167 -1.803453,0.29856 -2.606619,0.86582 -0.686874,0.48513 -1.386996,1.2089 -2.079534,2.1757 -0.668797,0.93365 -1.026517,1.73247 -1.061576,2.41175 -0.03492,0.6764 0.274273,1.2434 0.928134,1.67843 0.391819,0.26069 0.791614,0.41446 1.193838,0.46144 0.649508,0.0473 1.311869,-0.0889 1.980786,-0.40691 0.626029,-0.34477 1.174642,-0.63379 1.65556,-0.86543 0.08735,-0.0512 0.119949,-0.058 0.09769,-0.0197 -1.915598,2.70271 -3.826586,3.4942 -5.63681,2.18785 -1.023724,-0.78394 -1.553348,-1.70767 -1.595715,-2.71887 -0.04961,-1.18401 0.347473,-2.29344 1.142667,-3.35108 1.098017,-1.37789 2.360364,-2.36466 3.726656,-3.00816 1.496937,-0.66363 2.763218,-0.72643 3.872995,-0.17642 z m 4.662462,8.39029 c -1.5988,0.0454 -2.785176,0.82532 -3.477894,2.45563 -0.09795,0.1978 -0.182832,0.42697 -0.253557,0.68746 -0.0512,0.22099 -0.04924,0.39417 0.0059,0.51948 0.06326,0.22739 0.260982,0.42212 0.593244,0.57946 0.954153,0.45186 1.859083,0.0961 2.683841,-1.03567 0.792059,-1.18678 1.265129,-1.98758 1.418042,-2.3449 0.0075,-0.1411 -0.09649,-0.32905 -0.308516,-0.56668 -0.115078,-0.0988 -0.334964,-0.19549 -0.661075,-0.29477 0,0 -5e-6,-10e-6 -5e-6,-10e-6 z m 2.980464,0.3289 c -0.749984,0.99077 -1.392923,1.8608 -1.933684,2.64681 -0.538434,0.78263 -0.938983,1.47275 -1.194057,2.08554 -0.06786,0.16303 -0.103125,0.31562 -0.105334,0.45805 0.02934,0.20295 0.224788,0.28432 0.58343,0.23819 0.40729,-0.0265 0.78013,-0.1888 1.11684,-0.48442 0.02416,0.009 0.04832,0.0187 0.0725,0.028 0.06485,0.11946 0.02577,0.22265 -0.119135,0.30875 -0.416922,0.50165 -0.864319,0.84803 -1.342573,1.03703 -0.395488,0.12677 -0.744366,0.12701 -1.041121,0.003 -0.296878,-0.12417 -0.459221,-0.29023 -0.487414,-0.49442 -0.122846,-0.38895 -0.145643,-0.66517 -0.07494,-0.8265 -0.215851,0.0982 -0.481335,0.17438 -0.796434,0.22633 -0.199975,0.0553 -0.41585,0.0787 -0.647172,0.0695 -0.779712,0.0303 -1.382706,-0.28382 -1.779278,-0.9252 -0.289519,-0.73581 -0.358174,-1.34612 -0.227544,-1.82444 0.130831,-0.47907 0.290031,-0.89479 0.473661,-1.24698 0.551404,-1.05755 1.40167,-1.80694 2.507343,-2.29146 1.127401,-0.52499 2.074429,-0.61273 2.894515,-0.24808 0.302338,0.13443 0.514265,0.29808 0.636589,0.49463 0.113429,0.0967 0.205459,0.18353 0.275998,0.26111 0.292248,-0.0206 0.583479,-0.0435 0.873647,-0.0688 0.251512,0.007 0.379946,0.12858 0.387032,0.36879 -0.02429,0.0616 -0.04857,0.12311 -0.07286,0.18467 z m 7.868644,-2.16618 c 0.103408,0.29931 0.130719,0.55536 0.07762,0.76934 -0.24492,0.43823 -0.477567,0.90214 -0.696156,1.39181 -0.395647,0.81276 -0.623767,1.31318 -0.680443,1.53064 0.203922,0.0533 0.408119,0.10536 0.612577,0.15623 0.260946,0.0649 0.693618,0.17059 1.229794,0.29059 -0.02878,0.12888 -0.108046,0.26932 -0.238911,0.42028 -0.215088,0.31143 -0.673804,0.39113 -1.36842,0.21654 -0.208107,-0.0523 -0.415937,-0.10585 -0.623477,-0.16061 -0.182955,0.31815 -0.466281,0.92303 -0.863132,1.8219 -0.431665,0.84048 -0.861265,1.82189 -1.280693,2.93891 -0.0945,0.3391 0.0596,0.56659 0.467128,0.67532 0.305023,0.0814 0.576755,0.083 0.812571,0.006 0.183363,-0.0887 0.468965,-0.24669 0.842384,-0.4727 0.171636,-0.0491 0.232205,0.0325 0.181333,0.24708 -0.618015,0.80345 -1.097784,1.2761 -1.410341,1.42301 -0.45025,0.2492 -0.909128,0.28835 -1.365258,0.11662 -0.946092,-0.44531 -1.204988,-1.22277 -0.824117,-2.30247 0.329606,-0.72939 0.655386,-1.46016 0.97732,-2.19229 0.393278,-0.76297 0.860177,-1.69497 1.253455,-2.45794 -0.426871,-0.0768 -0.902711,-0.15013 -1.434071,-0.22505 -0.234494,-0.53715 -0.119351,-0.87107 0.317877,-1.00928 0.26681,-0.0557 0.774544,0.0373 1.543367,0.25634 0.09333,-0.15672 0.21034,-0.3984 0.350362,-0.72523 0.413449,-0.82848 0.960694,-1.87783 1.374143,-2.7063 0.428052,-0.24883 0.67275,-0.25562 0.745092,-0.009 z m 16.248678,1.39941 c 0.847435,-0.0569 1.532157,0.0788 2.075466,0.43377 0.13598,0.28793 0.27355,0.82472 0.40755,1.6037 -0.007,0.0905 -0.0146,0.18101 -0.0221,0.27153 -0.0819,0.3261 -0.23741,0.37471 -0.457929,0.14247 -0.502175,-0.54712 -0.833997,-0.8933 -1.036325,-1.04615 -0.285888,-0.13798 -0.578366,-0.18869 -0.882287,-0.15284 -0.29877,0.0796 -0.571962,0.197 -0.821691,0.35385 -0.690853,0.59629 -1.179132,1.35623 -1.446448,2.29737 -0.228451,0.80431 -0.325047,1.80541 -0.265065,2.98981 0.05798,1.1449 0.275329,1.9898 0.675975,2.54052 0.398476,0.54774 1.00256,0.79437 1.793806,0.71764 0.473942,-0.046 0.8856,-0.18091 1.229726,-0.40009 0.53751,-0.37598 0.964658,-0.90259 1.276988,-1.57289 0.26224,-0.66389 0.49706,-1.23451 0.71594,-1.71975 0.0339,-0.095 0.0544,-0.12107 0.0619,-0.0776 0.27047,3.28385 -0.69989,5.12701 -2.976166,5.26508 -1.31216,0.043 -2.322472,-0.34476 -2.993005,-1.10725 -0.785982,-0.89378 -1.15876,-2.0099 -1.185698,-3.3315 0.01372,-1.75843 0.396084,-3.31334 1.046016,-4.6596 0.73813,-1.44443 1.643645,-2.27708 2.803339,-2.54796 z m 8.807786,3.37194 c -1.1558,1.08389 -1.54404,2.44545 -0.9996,4.1241 0.0555,0.21278 0.14152,0.44063 0.25899,0.68266 0.10644,0.19957 0.22196,0.32833 0.34654,0.38622 0.19802,0.12914 0.47732,0.14545 0.83415,0.0445 1.0257,-0.29018 1.47376,-1.15672 1.34194,-2.54656 -0.19269,-1.40797 -0.37244,-2.32115 -0.49467,-2.68718 -0.0877,-0.11019 -0.28893,-0.18147 -0.60281,-0.219 -0.15051,0.002 -0.37704,0.075 -0.68458,0.21527 2e-5,-1e-5 3e-5,-1e-5 4e-5,-1e-5 z m 2.41929,-1.72649 c 0.10686,1.23622 0.20788,2.30737 0.32806,3.25297 0.1195,0.94026 0.27845,1.71941 0.49565,2.34506 0.0578,0.16637 0.13307,0.30327 0.22656,0.41059 0.15769,0.13118 0.35973,0.0614 0.59873,-0.21255 0.28877,-0.29183 0.4598,-0.66172 0.51362,-1.10617 0.0244,-0.009 0.0487,-0.0186 0.0731,-0.0279 0.12865,0.045 0.16873,0.14757 0.11794,0.30843 0.0243,0.65084 -0.0797,1.20715 -0.31382,1.66729 -0.21342,0.35856 -0.47738,0.59184 -0.78527,0.69751 -0.30804,0.10572 -0.54225,0.0901 -0.69992,-0.0431 -0.35278,-0.20774 -0.55401,-0.39864 -0.60787,-0.56571 -0.0981,0.21641 -0.24871,0.44935 -0.45366,0.6968 -0.11521,0.17375 -0.26399,0.3341 -0.44643,0.48016 -0.57405,0.53796 -1.2456,0.70014 -1.97299,0.47835 -0.70755,-0.36289 -1.16062,-0.77857 -1.37398,-1.22416 -0.21374,-0.4464 -0.36386,-0.86383 -0.45388,-1.24904 -0.2703,-1.15662 -0.11341,-2.273 0.39934,-3.36053 0.50188,-1.13049 1.14412,-1.81546 1.98879,-2.08261 0.31143,-0.0985 0.57525,-0.11618 0.79503,-0.0503 0.14738,-0.003 0.27252,0.001 0.37576,0.0122 0.20184,-0.20873 0.40097,-0.41877 0.5974,-0.63007 0.18922,-0.1618 0.36409,-0.15667 0.52878,0.0171 0.023,0.0619 0.046,0.12375 0.0691,0.18563 z m 5.26288,-7.15322 c 0.1857,-0.1082 0.44721,-0.21133 0.78732,-0.31508 0.33977,-0.10364 0.56259,-0.11417 0.6695,-0.0252 0.26051,0.25257 0.51629,0.53425 0.76582,0.84549 0.17876,0.19948 0.19372,0.34711 0.0413,0.44264 -0.0759,0.0476 -0.19456,0.0697 -0.35495,0.065 -0.71132,-0.13104 -1.20927,-0.11904 -1.51506,0.0573 -0.34282,0.1977 -0.54423,0.51134 -0.60941,0.94895 -0.0648,0.43537 0.16359,1.29105 0.67786,2.56225 0.70664,-0.37473 1.29018,-0.78151 1.74796,-1.20406 0.15617,-0.19339 0.24266,-0.14486 0.25576,0.15599 -0.0144,0.61938 -0.53878,1.29543 -1.60316,1.95755 1.05863,2.5161 1.69627,4.22227 1.93274,5.028 0.26006,0.85679 0.362,1.42251 0.31361,1.6932 -0.0674,0.47694 -0.23917,1.00542 -0.52409,1.57987 -0.12667,0.25541 -0.31908,0.44311 -0.57499,0.56077 -0.30739,0.14132 -0.57659,0.0923 -0.80416,-0.14361 -0.28135,-0.35648 -0.42324,-0.67978 -0.43075,-0.96524 0.38265,-0.2188 0.69426,-0.45975 0.93415,-0.71862 0.24034,-0.25944 0.29832,-0.70313 0.17229,-1.32784 -0.63728,-1.79508 -1.29142,-3.51392 -1.9503,-5.15315 -0.21865,0.20794 -0.43983,0.41429 -0.66351,0.61898 -0.21852,0.10457 -0.38393,0.0355 -0.49613,-0.20351 -0.0562,-0.11976 -0.10919,-0.28916 -0.16015,-0.50878 -0.051,-0.21953 0.0207,-0.39913 0.21329,-0.54089 0.23312,-0.11243 0.46533,-0.22675 0.69661,-0.34294 -0.58403,-1.47693 -0.76872,-2.699 -0.58395,-3.64163 0.11814,-0.61306 0.47008,-1.0804 1.0624,-1.42554 -1e-5,1e-5 -3e-5,1e-5 -4e-5,2e-5 z m 8.16142,-1.28349 c 0.46382,-0.38537 0.94482,-0.57099 1.46004,-0.55606 0.51487,0.0149 0.95266,0.21138 1.3083,0.60313 0.4447,0.48984 0.64194,0.9959 0.57716,1.52553 -0.13631,1.11464 -1.08139,2.35603 -2.87757,3.51658 0.5499,0.74528 1.09346,1.13728 1.64438,1.16446 0.34294,0.0169 0.74814,-0.15294 1.20466,-0.51572 0.37334,-0.29669 0.71634,-0.71823 1.01681,-1.26073 0.40485,-0.74646 0.61222,-1.57954 0.61775,-2.48289 0.0612,-0.2349 0.19189,-0.20848 0.39448,0.086 0.67507,2.01611 0.2733,3.68948 -1.18787,4.84682 -0.59822,0.47382 -1.25568,0.69315 -1.94979,0.65667 -1.11459,-0.0586 -1.99578,-0.60281 -2.67738,-1.57745 -0.80744,-1.1546 -1.0663,-2.31735 -0.85019,-3.4596 0.21714,-1.14773 0.64088,-1.98315 1.31922,-2.54675 z m 0.49796,1.04642 c -0.25759,0.21134 -0.45544,0.5687 -0.60635,1.07797 -0.15068,0.50848 -0.0984,1.21611 0.14697,2.13122 1.49345,-1.16367 2.23003,-2.07103 2.29977,-2.59507 0.0262,-0.19671 -0.0482,-0.39458 -0.2212,-0.59475 -0.2017,-0.2334 -0.40093,-0.3527 -0.59593,-0.35955 -0.3906,-0.0137 -0.72925,0.099 -1.02326,0.34018 z"
       id="text12"
       aria-label="Cat Cafe"
       inkscape:path-effect="#path-effect12"
       inkscape:original-d="m 62.973477,110.56038 q 1.322914,0.0662 2.050517,0.72761 0.132291,0.46302 0.132291,1.65364 l -0.06615,0.26458 q -0.198437,0.46302 -0.463019,0.0662 -0.595312,-0.92604 -0.859895,-1.19062 -0.396874,-0.26459 -0.859894,-0.26459 -0.46302,0.0662 -0.859894,0.26459 -1.124477,0.79374 -1.587497,2.1828 -0.396874,1.19063 -0.396874,2.97656 0,1.71979 0.46302,2.57968 0.46302,0.8599 1.455205,0.8599 0.595312,0 1.058332,-0.26459 0.727602,-0.46302 1.256768,-1.38906 0.46302,-0.92604 0.859894,-1.58749 0.06615,-0.13229 0.06615,-0.0661 -0.396874,4.96093 -3.108848,4.82864 -1.587497,-0.13229 -2.381246,-1.32292 -0.926039,-1.38906 -0.926039,-3.37343 0.06614,-2.64583 1.124477,-4.6302 1.190622,-2.11666 3.042702,-2.3151 z m 7.739047,5.15937 q -1.984371,1.05833 -1.852079,3.70416 0,0.33073 0.06615,0.7276 0.06615,0.33073 0.198437,0.46302 0.198437,0.26458 0.661457,0.26458 1.322914,0 1.719789,-2.05051 0.330728,-2.11667 0.330728,-2.71198 -0.06615,-0.19843 -0.46302,-0.39687 -0.198437,-0.0662 -0.661457,0 z m 2.645828,-0.8599 q -0.46302,1.78594 -0.727602,3.175 -0.264583,1.38906 -0.264583,2.38124 0,0.26459 0.06615,0.46302 0.132291,0.26459 0.529165,0 0.46302,-0.26458 0.727603,-0.85989 h 0.06615 q 0.132291,0.13229 0,0.33073 -0.264583,0.92604 -0.727603,1.4552 -0.396874,0.39688 -0.793749,0.39688 -0.396874,0 -0.529165,-0.26458 -0.330729,-0.46302 -0.330729,-0.72761 -0.198437,0.26459 -0.529165,0.52917 -0.198437,0.19844 -0.46302,0.33073 -0.859894,0.52916 -1.653643,-0.0661 -0.727603,-0.79375 -0.859894,-1.52135 -0.132291,-0.7276 -0.132291,-1.32291 0,-1.78594 1.058331,-3.175 1.058331,-1.4552 2.315099,-1.4552 0.46302,0 0.727603,0.19843 0.198437,0.0662 0.330729,0.13229 l 0.727602,-0.39687 q 0.330729,-0.13229 0.46302,0.19844 z m 6.614571,-4.4979 q 0.264582,0.39687 0.264582,0.7276 -0.198437,0.7276 -0.330728,1.52135 -0.264583,1.32292 -0.264583,1.65364 h 0.595311 q 0.396875,0 1.190623,0 0,0.19844 -0.132291,0.46302 -0.198437,0.52917 -1.190623,0.52917 h -0.595311 q -0.132292,0.52916 -0.330729,1.98437 -0.264583,1.38906 -0.396874,3.17499 0,0.52917 0.529166,0.52917 0.396874,0 0.661457,-0.19844 0.198437,-0.19843 0.595311,-0.66145 0.198437,-0.1323 0.198437,0.19843 -0.529166,1.38906 -0.859894,1.71979 -0.46302,0.52917 -1.058331,0.46302 -1.256769,-0.26458 -1.190623,-1.98437 l 0.264583,-2.38125 q 0.330728,-1.98437 0.46302,-2.71197 -0.595312,0.0661 -1.322914,0.19844 -0.529166,-0.66146 0,-1.05833 0.330728,-0.19844 1.455205,-0.19844 0.06615,-0.26458 0.132292,-0.79375 0.132291,-0.7276 0.595311,-2.97656 0.529166,-0.52916 0.727603,-0.19843 z m 16.867154,0.19843 q 1.322914,0.0662 2.050517,0.72761 0.132291,0.46302 0.132291,1.65364 l -0.06615,0.26458 q -0.198437,0.46302 -0.463019,0.0662 -0.595312,-0.92604 -0.859895,-1.19062 -0.396874,-0.26459 -0.859894,-0.26459 -0.46302,0.0662 -0.859894,0.26459 -1.124477,0.79374 -1.587497,2.1828 -0.396874,1.19063 -0.396874,2.97656 0,1.71979 0.46302,2.57968 0.46302,0.8599 1.455205,0.8599 0.595312,0 1.058332,-0.26459 0.727602,-0.46302 1.256768,-1.38906 0.46302,-0.92604 0.859894,-1.58749 0.06615,-0.13229 0.06615,-0.0661 -0.396874,4.96093 -3.108848,4.82864 -1.587497,-0.13229 -2.381245,-1.32292 -0.92604,-1.38906 -0.92604,-3.37343 0.06614,-2.64583 1.124477,-4.6302 1.190622,-2.11666 3.042702,-2.3151 z m 7.739053,5.15937 q -1.98437,1.05833 -1.85208,3.70416 0,0.33073 0.0661,0.7276 0.0662,0.33073 0.19844,0.46302 0.19844,0.26458 0.66146,0.26458 1.32291,0 1.71978,-2.05051 0.33073,-2.11667 0.33073,-2.71198 -0.0661,-0.19843 -0.46302,-0.39687 -0.19843,-0.0662 -0.66145,0 z m 2.64582,-0.8599 q -0.46302,1.78594 -0.7276,3.175 -0.26458,1.38906 -0.26458,2.38124 0,0.26459 0.0661,0.46302 0.1323,0.26459 0.52917,0 0.46302,-0.26458 0.7276,-0.85989 h 0.0662 q 0.13229,0.13229 0,0.33073 -0.26458,0.92604 -0.7276,1.4552 -0.39688,0.39688 -0.79375,0.39688 -0.39688,0 -0.52917,-0.26458 -0.33073,-0.46302 -0.33073,-0.72761 -0.19843,0.26459 -0.52916,0.52917 -0.19844,0.19844 -0.46302,0.33073 -0.8599,0.52916 -1.65364,-0.0661 -0.72761,-0.79375 -0.8599,-1.52135 -0.13229,-0.7276 -0.13229,-1.32291 0,-1.78594 1.05833,-3.175 1.05833,-1.4552 2.3151,-1.4552 0.46302,0 0.7276,0.19843 0.19844,0.0662 0.33073,0.13229 l 0.7276,-0.39687 q 0.33073,-0.13229 0.46302,0.19844 z m 7.6729,-4.23332 q 0.33073,0 0.8599,0.13229 0.52916,0.13229 0.59531,0.33073 0.13229,0.52917 0.19844,1.12448 0.0661,0.39687 -0.19844,0.39687 -0.13229,0 -0.33073,-0.13229 -0.79375,-0.7276 -1.32291,-0.7276 -0.59531,0 -0.99219,0.52916 -0.39687,0.52917 -0.59531,2.57968 1.12448,0 1.98437,-0.19843 0.33073,-0.13229 0.13229,0.26458 -0.46302,0.79375 -2.18281,0.92604 -0.33072,4.10103 -0.52916,5.3578 -0.19844,1.32292 -0.39688,1.65364 -0.33072,0.59532 -0.92604,1.19063 -0.26458,0.26458 -0.59531,0.26458 -0.39687,0 -0.52916,-0.46302 -0.13229,-0.66146 0,-1.05833 0.52916,-0.0662 0.92604,-0.26458 0.39687,-0.19844 0.59531,-1.12448 0.26458,-2.84427 0.46302,-5.49009 l -0.79375,0.26458 q -0.33073,0 -0.33073,-0.39688 0,-0.19843 0.0662,-0.52916 0.0661,-0.33073 0.39687,-0.39688 h 0.7276 q 0.19844,-2.38124 1.12448,-3.50572 0.59531,-0.7276 1.65364,-0.7276 z m 7.34218,3.63801 q 0.85989,0 1.38905,0.52917 0.52917,0.52916 0.52917,1.32291 0,0.99219 -0.52917,1.52135 -1.12447,1.12448 -3.90259,0.92604 0,1.38906 0.52916,1.91823 0.33073,0.33073 1.05834,0.33073 0.59531,0 1.32291,-0.33073 0.99218,-0.46302 1.78593,-1.45521 0.26459,-0.19843 0.19844,0.33073 -1.12448,2.91041 -3.37343,2.91041 -0.92604,0 -1.5875,-0.66145 -1.05833,-1.05833 -1.05833,-2.84427 0,-2.11666 1.19062,-3.30728 1.19063,-1.19063 2.4474,-1.19063 z m -0.26459,1.12448 q -0.46302,0 -1.05833,0.46302 -0.59531,0.46302 -1.05833,1.78593 2.51354,-0.0661 3.0427,-0.59531 0.19844,-0.19843 0.19844,-0.59531 0,-0.46302 -0.19844,-0.66146 -0.39687,-0.39687 -0.92604,-0.39687 z"
       transform="translate(0.49351067,-10.279565)" />
  </g>
</svg>
