<?xml version="1.0" encoding="UTF-8" standalone="no"?>
<!-- Created with Inkscape (http://www.inkscape.org/) -->

<svg
   width="16"
   height="16"
   viewBox="0 0 4.2333333 4.2333334"
   version="1.1"
   id="svg1"
   inkscape:version="1.4 (86a8ad7, 2024-10-11)"
   sodipodi:docname="favicon_new.svg"
   xmlns:inkscape="http://www.inkscape.org/namespaces/inkscape"
   xmlns:sodipodi="http://sodipodi.sourceforge.net/DTD/sodipodi-0.dtd"
   xmlns="http://www.w3.org/2000/svg"
   xmlns:svg="http://www.w3.org/2000/svg">
  <sodipodi:namedview
     id="namedview1"
     pagecolor="#ffffff"
     bordercolor="#000000"
     borderopacity="0.25"
     inkscape:showpageshadow="2"
     inkscape:pageopacity="0.0"
     inkscape:pagecheckerboard="0"
     inkscape:deskcolor="#d1d1d1"
     inkscape:document-units="mm"
     showgrid="true"
     inkscape:zoom="33.268012"
     inkscape:cx="9.1078482"
     inkscape:cy="8.6419351"
     inkscape:window-width="2560"
     inkscape:window-height="1369"
     inkscape:window-x="-8"
     inkscape:window-y="-8"
     inkscape:window-maximized="1"
     inkscape:current-layer="layer1">
    <inkscape:grid
       id="grid2"
       units="mm"
       originx="-56.112598"
       originy="-54.055302"
       spacingx="0.99999998"
       spacingy="1"
       empcolor="#0099e5"
       empopacity="0.30196078"
       color="#0099e5"
       opacity="0.14901961"
       empspacing="5"
       enabled="true"
       visible="true" />
  </sodipodi:namedview>
  <defs
     id="defs1">
    <inkscape:path-effect
       effect="bend_path"
       id="path-effect2"
       is_visible="true"
       lpeversion="1"
       bendpath="m 58.117596,103.75304 c 22.580296,16.66097 52.605474,16.11127 68.721374,-0.71982"
       prop_scale="0.92076414"
       scale_y_rel="false"
       vertical="false"
       hide_knot="false"
       bendpath-nodetypes="cc" />
    <inkscape:path-effect
       effect="bend_path"
       id="path-effect12"
       is_visible="true"
       lpeversion="1"
       bendpath="m 58.806298,117.27672 c 18.380924,13.76703 46.631212,18.30803 67.807742,-1.43966"
       prop_scale="1"
       scale_y_rel="false"
       vertical="false"
       hide_knot="false"
       bendpath-nodetypes="cc" />
    <linearGradient
       id="swatch12"
       inkscape:swatch="solid">
      <stop
         style="stop-color:#b22222;stop-opacity:1;"
         offset="0"
         id="stop12" />
    </linearGradient>
    <inkscape:path-effect
       effect="bend_path"
       id="path-effect1"
       is_visible="true"
       lpeversion="1"
       bendpath="m 212.46018,460.67605 c 115.65763,101.32777 222.77849,40.43132 265.89078,-17.79488"
       prop_scale="1"
       scale_y_rel="false"
       vertical="false"
       hide_knot="false"
       bendpath-nodetypes="cc" />
    <rect
       x="200.07207"
       y="439.58142"
       width="333.29312"
       height="112.0596"
       id="rect1" />
  </defs>
  <g
     inkscape:groupmode="layer"
     id="layer5"
     inkscape:label="Ears"
     transform="translate(-56.112598,-54.0553)">
    <path
       style="fill:#d2b48c;stroke-width:0.0151417"
       d="m 59.026488,54.780481 c 0.64084,-0.524324 0.872053,-0.527965 0.872053,-0.527965 0.04005,-0.0035 0.08193,-0.01887 0.121978,0.01639 0.05079,0.01938 0.0072,0.321634 0.01092,0.482451 l -0.02913,0.611712 z"
       id="path2-5"
       sodipodi:nodetypes="cccccc" />
    <path
       style="fill:#d2b48c;stroke-width:0.0151417"
       d="m 57.401812,54.793815 c -0.64084,-0.524324 -0.872054,-0.527965 -0.872054,-0.527965 -0.04005,-0.0035 -0.08193,-0.01887 -0.121977,0.01638 -0.05079,0.01938 -0.0072,0.321635 -0.01092,0.482451 l 0.02913,0.611712 z"
       id="path2"
       sodipodi:nodetypes="cccccc" />
  </g>
  <g
     inkscape:label="Head"
     inkscape:groupmode="layer"
     id="layer1"
     transform="translate(-56.112598,-54.0553)">
    <ellipse
       style="fill:#ffdead;stroke-width:0.014888"
       id="path1"
       cx="58.228352"
       cy="55.948055"
       rx="1.9698573"
       ry="1.441892" />
  </g>
  <g
     inkscape:groupmode="layer"
     id="layer6"
     inkscape:label="Tongue"
     transform="translate(-56.112598,-54.0553)">
    <path
       style="fill:#cd5c5c;stroke-width:0.0159521"
       d="m 57.992783,56.477103 c 0,0 0.03916,0.532469 0.233008,0.532958 0.193844,5.16e-4 0.235583,-0.531529 0.235583,-0.531529 z"
       id="path5"
       sodipodi:nodetypes="czcc" />
  </g>
  <g
     inkscape:groupmode="layer"
     id="layer2"
     inkscape:label="Mouth"
     transform="translate(-56.112598,-54.0553)">
    <path
       style="fill:#000000;stroke-width:0.00859909"
       id="path4"
       sodipodi:type="arc"
       sodipodi:cx="57.920818"
       sodipodi:cy="56.436413"
       sodipodi:rx="0.32770267"
       sodipodi:ry="0.22633596"
       sodipodi:start="0"
       sodipodi:end="4.1072108"
       sodipodi:arc-type="slice"
       d="m 58.248521,56.436413 a 0.32770267,0.22633596 0 0 1 -0.262044,0.221746 0.32770267,0.22633596 0 0 1 -0.36705,-0.132888 0.32770267,0.22633596 0 0 1 0.114958,-0.274997 l 0.186433,0.186139 z" />
    <ellipse
       style="fill:#ffdead;stroke-width:0.0113102"
       id="path6"
       ry="0.20331874"
       rx="0.30095148"
       cy="56.436413"
       cx="57.916359" />
    <path
       style="fill:#000000;stroke-width:0.00859909"
       id="path4-5"
       sodipodi:type="arc"
       sodipodi:cx="-58.54137"
       sodipodi:cy="56.437294"
       sodipodi:rx="0.32770267"
       sodipodi:ry="0.22633596"
       sodipodi:start="0"
       sodipodi:end="4.1072108"
       sodipodi:arc-type="slice"
       d="m -58.213668,56.437294 a 0.32770267,0.22633596 0 0 1 -0.262044,0.221746 0.32770267,0.22633596 0 0 1 -0.36705,-0.132887 0.32770267,0.22633596 0 0 1 0.114959,-0.274998 l 0.186433,0.186139 z"
       transform="scale(-1,1)" />
    <ellipse
       style="fill:#ffdead;stroke-width:0.0113102"
       id="path6-1"
       ry="0.20331874"
       rx="0.30095148"
       cy="56.437294"
       cx="-58.545826"
       transform="scale(-1,1)" />
  </g>
  <g
     inkscape:groupmode="layer"
     id="layer4"
     inkscape:label="Taso 3"
     transform="translate(-56.112598,-54.0553)">
    <path
       style="fill:#d2b48c;stroke-width:0.0143426"
       d="m 56.278595,55.73095 0.58998,0.04069 c 0.04003,0.0053 0.09199,0.0066 0.108433,0.06598 4.18e-4,0.07382 -0.05761,0.06836 -0.08499,0.07212 l -0.633523,0.03831 c 8.54e-4,-0.07865 0.0054,-0.137543 0.0201,-0.217106 z"
       id="path3"
       sodipodi:nodetypes="cccccc" />
    <path
       style="fill:#d2b48c;stroke-width:0.013359"
       d="m 56.450169,56.568958 0.420156,-0.03426 c 0.03473,-0.0053 0.07997,-0.004 0.09407,-0.06598 5.38e-4,-0.07189 -0.04998,-0.06836 -0.07373,-0.07212 L 56.3404,56.358278 c 0.02643,0.07004 0.07294,0.150306 0.109771,0.21067 z"
       id="path3-2"
       sodipodi:nodetypes="cccccc" />
    <path
       style="fill:#d2b48c;stroke-width:0.013359"
       d="m 60.008069,56.566994 -0.420155,-0.03426 c -0.03473,-0.0053 -0.07031,-0.0066 -0.09793,-0.06405 -0.0089,-0.06996 0.05384,-0.07028 0.07759,-0.07405 l 0.550265,-0.03832 c -0.02644,0.07004 -0.07294,0.150305 -0.109771,0.21067 z"
       id="path3-2-8"
       sodipodi:nodetypes="cccccc" />
    <path
       style="fill:#d2b48c;stroke-width:0.0144449"
       d="m 60.177978,55.730821 -0.598426,0.04069 c -0.04061,0.0053 -0.08929,0.0072 -0.109986,0.06598 7.44e-4,0.07318 0.05844,0.06836 0.0862,0.07212 l 0.642593,0.03832 c -8.64e-4,-0.07865 -0.0054,-0.137545 -0.02039,-0.217108 z"
       id="path3-1"
       sodipodi:nodetypes="cccccc" />
    <path
       style="fill:#d2b48c;stroke-width:0.0151417"
       d="m 56.304441,56.257505 0.638246,-0.04262 c 0.04463,-0.0053 0.09484,-0.0066 0.120853,-0.06598 0.0053,-0.0706 -0.06421,-0.06836 -0.09472,-0.07212 l -0.706087,-0.03832 c 0.0051,0.08478 0.02207,0.145087 0.04171,0.219039 z"
       id="path3-5"
       sodipodi:nodetypes="cccccc" />
    <path
       style="fill:#d2b48c;stroke-width:0.0151417"
       d="m 60.152694,56.257251 -0.638246,-0.04262 c -0.04463,-0.0053 -0.09549,-0.0059 -0.120854,-0.06598 -0.0098,-0.07125 0.06421,-0.06835 0.09472,-0.07212 l 0.706087,-0.03832 c -0.0051,0.08478 -0.02207,0.145086 -0.04171,0.219038 z"
       id="path3-5-1"
       sodipodi:nodetypes="cccccc" />
  </g>
  <g
     inkscape:groupmode="layer"
     id="layer7"
     inkscape:label="Text 1"
     transform="translate(-56.112598,-54.0553)">
    <path
       style="font-size:16.9333px;font-family:'Cascadia Mono';-inkscape-font-specification:'Cascadia Mono, Normal';fill:#3f4739;stroke-width:0.265"
       d="m 59.323945,111.64983 c -3.340236,-2.07117 -3.638196,-4.77359 -1.456047,-7.72162 1.04592,-1.41302 2.214297,-2.24875 3.447729,-2.55229 1.24467,-0.30973 2.456663,-0.0636 3.715842,0.71967 0.609948,0.37941 1.084898,0.80027 1.429126,1.27578 0.346389,0.47059 0.526149,0.95455 0.533322,1.45818 -0.504714,0.14773 -1.013826,0.28912 -1.527157,0.42403 -0.02562,-0.41384 -0.141718,-0.79047 -0.347454,-1.13206 -0.201516,-0.33919 -0.472716,-0.61382 -0.816791,-0.82784 -0.818898,-0.50937 -1.655278,-0.64031 -2.545038,-0.38961 -0.881641,0.25244 -1.709707,0.89991 -2.453756,1.96371 -1.610287,2.30229 -1.372247,4.28234 1.005628,5.74217 0.704071,0.43224 1.485683,0.71545 2.330539,0.84272 -0.106697,0.45345 -0.210973,0.90786 -0.312815,1.36318 -1.04554,-0.18738 -2.054235,-0.57764 -3.003128,-1.16602 z m 9.873808,4.98888 c 0.269297,-0.75188 0.539921,-1.50326 0.811868,-2.25414 0.0139,-0.23651 0.02859,-0.47284 0.04407,-0.709 l 0.813619,-1.92318 c 0.209839,-0.49601 0.178425,-0.93583 -0.08552,-1.32194 -0.257543,-0.38936 -0.730889,-0.74711 -1.420852,-1.09241 -0.595832,-0.29846 -1.186711,-0.60635 -1.772327,-0.92343 0.262908,-0.40235 0.524776,-0.80531 0.785601,-1.20885 0.485913,0.25357 0.975266,0.50068 1.467869,0.7412 1.210102,0.59263 2.012549,1.24513 2.409331,2.01319 0.402227,0.76293 0.425446,1.64229 0.03536,2.63454 l -1.232186,3.13423 c 0.455729,0.23883 0.914822,0.47265 1.377188,0.70134 l -0.445987,1.21572 c -0.936153,-0.31532 -1.865769,-0.65121 -2.788021,-1.00727 z m -3.012351,-1.25446 c -0.873399,-0.41302 -1.452001,-0.93348 -1.732668,-1.53409 -0.281003,-0.60134 -0.239989,-1.23092 0.106492,-1.88715 0.398804,-0.75532 1.013419,-1.17021 1.826963,-1.26881 0.820244,-0.0964 1.776226,0.12281 2.902465,0.63309 0.467458,0.21179 0.8725,0.42206 1.216649,0.63555 0.350903,0.21086 0.649899,0.42844 0.897375,0.65551 -0.248723,0.29361 -0.499221,0.58615 -0.751482,0.87761 -0.312603,-0.21192 -0.627745,-0.39254 -0.947254,-0.54219 -0.317502,-0.15431 -0.644135,-0.30738 -0.980278,-0.45984 -1.378105,-0.62502 -2.246927,-0.60128 -2.629419,0.16934 -0.158175,0.31868 -0.161733,0.62374 -0.0065,0.91456 0.160185,0.29312 0.465701,0.54852 0.915669,0.75899 0.511974,0.23946 0.97786,0.35437 1.391135,0.34831 0.41853,-0.004 0.766526,-0.0948 1.043299,-0.26932 0.276884,-0.17453 0.469418,-0.39404 0.580247,-0.65601 l 0.344455,-0.8142 c -0.112544,0.70262 -0.219814,1.40669 -0.321778,2.11216 -0.219804,-0.0908 -0.439119,-0.18281 -0.657934,-0.27597 0.120451,-0.0371 0.24066,-0.0745 0.360626,-0.1122 -0.181501,0.43085 -0.445378,0.74425 -0.796579,0.93712 -0.343543,0.19024 -0.752497,0.26868 -1.224734,0.23104 -0.469852,-0.0423 -0.984503,-0.19238 -1.536701,-0.45351 z m 12.71363,4.53339 c -1.363925,-0.33689 -2.275169,-0.86555 -2.726961,-1.52858 -0.447784,-0.66364 -0.490977,-1.52755 -0.157725,-2.59381 l 0.408768,-1.30787 c 0.549402,0.17154 1.101105,0.33551 1.65492,0.4918 l -0.351697,1.24494 c -0.173843,0.61537 -0.136661,1.10801 0.120726,1.4786 0.262333,0.37134 0.785175,0.66213 1.566213,0.85307 0.276928,0.0677 0.57407,0.12538 0.890824,0.17215 0.317171,0.0417 0.682886,0.0842 1.092476,0.1244 -0.03124,0.47527 -0.06098,0.95073 -0.0892,1.42637 -0.411115,-0.0235 -0.810835,-0.0641 -1.198336,-0.12097 -0.381751,-0.0556 -0.785603,-0.13525 -1.21001,-0.24007 z m -2.657593,-4.84898 1.998418,-6.39407 c 0.495924,0.15562 0.993726,0.30435 1.493215,0.44608 l -1.820543,6.44436 c -0.559247,-0.15774 -1.116341,-0.32324 -1.67109,-0.49637 z m -1.103978,-3.46174 0.438489,-1.25054 c 2.317944,0.81405 4.682748,1.48431 7.076792,1.99985 l -0.277949,1.29353 c -2.449448,-0.52682 -4.867765,-1.21141 -7.237332,-2.04284 z m 24.349666,9.99096 c -2.027802,0.18156 -3.564428,-0.28864 -4.528374,-1.26439 -0.90916,-0.92309 -1.315861,-2.28891 -1.298433,-4.08979 0.0164,-1.69459 0.440334,-3.02223 1.194609,-3.98594 0,0 0,0 0,0 0.02763,-0.0356 0.05572,-0.0707 0.08426,-0.10533 0.809167,-0.98733 1.903461,-1.51233 3.34885,-1.64561 0.700483,-0.0646 1.319786,-0.0169 1.872239,0.15249 0.55097,0.16407 0.9825,0.43878 1.29333,0.83426 -0.30285,0.42644 -0.61513,0.85008 -0.93669,1.2705 -0.2703,-0.31389 -0.588103,-0.5434 -0.954222,-0.69117 -0.361439,-0.14844 -0.737924,-0.2037 -1.135713,-0.1673 -0.946425,0.0866 -1.683061,0.48212 -2.24361,1.21409 -0.552408,0.72766 -0.837332,1.74073 -0.808744,3.03803 0.06168,2.79905 1.435876,4.28506 4.277877,4.01293 0.838542,-0.0803 1.648572,-0.33138 2.410332,-0.74943 0.19515,0.4253 0.3935,0.84967 0.59502,1.27306 -0.96563,0.49609 -2.03155,0.8016 -3.170733,0.9036 z m 11.121793,-2.26593 c -0.27396,-0.75136 -0.54615,-1.50338 -0.81659,-2.25604 -0.14154,-0.19082 -0.28215,-0.38215 -0.42181,-0.57399 l -0.59855,-2.00408 c -0.15437,-0.51687 -0.45928,-0.83612 -0.90811,-0.96767 -0.44616,-0.13821 -1.03708,-0.11628 -1.78948,0.0475 -0.64989,0.14127 -1.30271,0.26907 -1.95771,0.3835 -0.0439,-0.48007 -0.0894,-0.95991 -0.13633,-1.43949 0.53384,-0.10191 1.06583,-0.21288 1.5955,-0.33296 1.30186,-0.29346 2.32222,-0.29751 3.11694,0.0432 0.79203,0.33175 1.37689,0.99057 1.71674,2.00154 l 1.0739,3.19463 c 0.5129,-0.11499 1.02487,-0.23825 1.53563,-0.36988 l 0.45024,1.21405 c -0.94269,0.38106 -1.89676,0.7343 -2.86037,1.05964 z m -3.2139,0.96484 c -0.96544,0.23355 -1.76337,0.1891 -2.36847,-0.1068 -0.60608,-0.29639 -0.96765,-0.81853 -1.10027,-1.55106 -0.15266,-0.84325 0.0805,-1.55155 0.66338,-2.13618 0.59181,-0.58927 1.47911,-1.0127 2.68323,-1.32973 0.49962,-0.13155 0.94864,-0.22651 1.3526,-0.28143 0.40745,-0.0613 0.77868,-0.0855 1.11643,-0.0702 -0.004,0.38554 -0.0104,0.77156 -0.0196,1.15803 -0.3804,0.0383 -0.74256,0.10116 -1.08864,0.1898 -0.3475,0.0838 -0.70148,0.17334 -1.06293,0.26847 -1.47999,0.38955 -2.15774,0.94682 -1.97631,1.79263 0.0748,0.34884 0.26427,0.59001 0.57299,0.71965 0.31375,0.12811 0.72065,0.13456 1.21389,0.0125 0.56119,-0.13889 1.00557,-0.34772 1.32945,-0.61708 0.32953,-0.27095 0.54595,-0.56498 0.65181,-0.87732 0.10594,-0.3125 0.11573,-0.6054 0.0342,-0.87836 l -0.25341,-0.84845 c 0.36282,0.61374 0.73219,1.22436 1.1081,1.83173 -0.23172,0.0725 -0.46395,0.14325 -0.69666,0.21239 0.0712,-0.10609 0.14184,-0.21232 0.21197,-0.31866 0.13491,0.4484 0.12917,0.85962 -0.0249,1.23466 -0.1496,0.36793 -0.42435,0.6921 -0.82559,0.966 -0.40225,0.26876 -0.91095,0.48176 -1.52128,0.62941 z m 9.74691,-3.56945 -3.09413,-6.68544 c -1.18058,-2.55086 -0.62056,-4.25303 1.31004,-5.3648 0.44969,-0.25895 0.90186,-0.47442 1.36322,-0.64818 0.20769,0.41788 0.41365,0.83676 0.61789,1.25664 -0.27435,0.12521 -0.51147,0.23775 -0.71456,0.34194 -0.2025,0.10388 -0.39592,0.20865 -0.58057,0.31496 -1.14627,0.65995 -1.38041,1.74055 -0.57148,3.32478 l 3.38008,6.61969 c -0.56507,0.29123 -1.13538,0.57136 -1.71049,0.84041 z m -4.54971,-3.3873 -0.48413,-1.23271 c 2.3972,-0.94026 4.7051,-2.08184 6.88018,-3.42657 l 0.69275,1.11992 c -2.24492,1.3897 -4.62236,2.56888 -7.0888,3.53936 z m 15.98017,-3.88085 c -1.24605,1.09596 -2.48977,1.59656 -3.61721,1.54554 -1.12959,-0.0588 -2.06438,-0.67415 -2.83613,-1.77731 -0.75026,-1.07243 -1.05665,-2.10418 -0.9757,-3.06125 0.0816,-0.96458 0.54782,-1.77431 1.40031,-2.50756 0.80408,-0.69161 1.61323,-1.01788 2.5003,-0.96843 0.88304,0.0455 1.79925,0.48103 2.7043,1.35222 0.26699,0.25701 0.50386,0.50799 0.71026,0.75444 -1.47023,1.50969 -3.04758,2.89161 -4.71301,4.14658 l -0.73794,-0.97831 c 1.21189,-0.91367 2.37414,-1.89653 3.47872,-2.94891 -0.49962,-0.52267 -1.01668,-0.79627 -1.53668,-0.83579 -0.52578,-0.0434 -1.0107,0.13689 -1.47803,0.53815 -0.52555,0.45126 -0.7987,0.96644 -0.8211,1.57443 -0.0182,0.60185 0.21851,1.24707 0.73054,1.92075 0.5615,0.73875 1.21741,1.13107 1.98177,1.14388 0.76701,0.009 1.59626,-0.34874 2.43264,-1.09328 0.29186,-0.25981 0.56434,-0.53304 0.81658,-0.81843 0.24876,-0.289 0.48928,-0.59453 0.72029,-0.91614 0.38869,0.27842 0.77925,0.55492 1.17169,0.82948 -0.34292,0.47075 -0.68462,0.87816 -1.01717,1.22186 -0.33237,0.34347 -0.63943,0.63612 -0.91446,0.87802 1e-5,2e-5 2e-5,4e-5 3e-5,6e-5 z"
       id="text1"
       aria-label="Cat Cafe"
       inkscape:path-effect="#path-effect2"
       inkscape:original-d="m 60.351913,122.17673 q -5.473557,0 -5.473557,-6.05233 0,-2.86907 1.380792,-4.44003 1.380791,-1.57923 3.894328,-1.57923 1.215427,0 2.116662,0.38861 0.901236,0.38034 1.314646,1.0914 l -1.223695,1.21543 q -0.37207,-0.56224 -0.950845,-0.86816 -0.570506,-0.30593 -1.240232,-0.30593 -1.595765,0 -2.563146,1.14928 -0.959112,1.14929 -0.959112,3.26595 0,4.61366 3.985278,4.61366 1.198891,0 2.364709,-0.49609 l 0.380338,1.4552 q -1.438669,0.56224 -3.026166,0.56224 z m 10.500631,-0.0827 -0.115755,-2.59622 -0.23151,-0.7276 v -2.26549 q 0,-0.87643 -0.620116,-1.28157 -0.611848,-0.41342 -1.827275,-0.44649 l -2.100126,-0.0579 0.165364,-1.55442 1.769398,0.0248 q 2.17454,0.0331 3.224603,0.94258 1.058331,0.90124 1.058331,2.63756 v 3.65455 l 1.488278,0.1819 v 1.4056 z m -3.092312,0.0827 q -1.372523,0 -2.124931,-0.66145 -0.752407,-0.66146 -0.752407,-1.86862 0,-1.38906 1.033527,-2.1332 1.041795,-0.74414 2.935215,-0.74414 0.785481,0 1.397328,0.0992 0.620116,0.091 1.099673,0.28112 l -0.363802,1.19062 q -0.55397,-0.12402 -1.083136,-0.14056 -0.529165,-0.0248 -1.083136,-0.0248 -2.282026,0 -2.282026,1.38906 0,0.57877 0.388606,0.89296 0.396874,0.3142 1.116208,0.3142 0.818554,0 1.364256,-0.28112 0.55397,-0.28112 0.826821,-0.71934 0.272851,-0.43821 0.272851,-0.90123 v -0.95912 l 0.512629,2.24896 h -0.69453 l 0.281119,-0.26458 q 0,0.76067 -0.355533,1.2733 -0.347265,0.50436 -0.983917,0.76068 -0.636652,0.24804 -1.504815,0.24804 z m 12.799194,0 q -1.992639,0 -2.885606,-0.82682 -0.884699,-0.82682 -0.884699,-2.64583 v -1.48828 h 1.752861 v 1.4056 q 0,1.0418 0.504361,1.51308 0.512629,0.47129 1.678447,0.47129 0.413411,0 0.876431,-0.0413 0.46302,-0.0496 1.058331,-0.12402 l 0.198437,1.53788 q -0.578775,0.0992 -1.132745,0.14883 -0.545702,0.0496 -1.165818,0.0496 z m -3.770305,-4.29947 v -7.27603 h 1.752861 v 7.27603 z m -2.199345,-3.19153 v -1.43867 h 7.937485 v 1.43867 z m 25.449564,7.491 q -5.47356,0 -5.47356,-6.05233 0,-2.86907 1.380791,-4.44003 1.380792,-1.57923 3.894329,-1.57923 1.21543,0 2.11666,0.38861 0.90124,0.38034 1.31465,1.0914 l -1.2237,1.21543 q -0.37207,-0.56224 -0.95084,-0.86816 -0.57051,-0.30593 -1.240234,-0.30593 -1.595765,0 -2.563146,1.14928 -0.959113,1.14929 -0.959113,3.26595 0,4.61366 3.985283,4.61366 1.19889,0 2.3647,-0.49609 l 0.38034,1.4552 q -1.43867,0.56224 -3.02616,0.56224 z m 10.50063,-0.0827 -0.11576,-2.59622 -0.23151,-0.7276 v -2.26549 q 0,-0.87643 -0.62011,-1.28157 -0.61185,-0.41342 -1.82728,-0.44649 l -2.10012,-0.0579 0.16536,-1.55442 1.7694,0.0248 q 2.17454,0.0331 3.2246,0.94258 1.05833,0.90124 1.05833,2.63756 v 3.65455 l 1.48828,0.1819 v 1.4056 z m -3.09231,0.0827 q -1.37253,0 -2.12493,-0.66145 -0.75241,-0.66146 -0.75241,-1.86862 0,-1.38906 1.03352,-2.1332 1.0418,-0.74414 2.93522,-0.74414 0.78548,0 1.39733,0.0992 0.62011,0.091 1.09967,0.28112 l -0.3638,1.19062 q -0.55397,-0.12402 -1.08314,-0.14056 -0.52916,-0.0248 -1.08313,-0.0248 -2.28203,0 -2.28203,1.38906 0,0.57877 0.38861,0.89296 0.39687,0.3142 1.11621,0.3142 0.81855,0 1.36425,-0.28112 0.55397,-0.28112 0.82682,-0.71934 0.27285,-0.43821 0.27285,-0.90123 v -0.95912 l 0.51263,2.24896 h -0.69453 l 0.28112,-0.26458 q 0,0.76067 -0.35553,1.2733 -0.34727,0.50436 -0.98392,0.76068 -0.63665,0.24804 -1.50481,0.24804 z m 9.57459,-0.16536 v -8.02017 q 0,-4.54752 4.15064,-4.54752 0.94258,0 1.81901,0.16537 l -0.1819,1.52135 q -0.5209,-0.0661 -0.91778,-0.0909 -0.39687,-0.0248 -0.76894,-0.0248 -2.34817,0 -2.34817,2.89388 v 8.10285 z m -2.76159,-5.34127 v -1.43867 h 8.10285 v 1.43867 z m 15.1639,5.50663 q -2.24068,0 -3.46438,-1.17408 -1.21543,-1.18236 -1.21543,-3.38997 0,-2.14974 1.03353,-3.34036 1.03353,-1.19062 2.91868,-1.19062 1.77767,0 2.74505,1.07487 0.97565,1.07486 0.97565,3.12538 0,0.60358 -0.0496,1.12448 h -6.15155 v -1.33945 h 4.61366 q 0,-1.18236 -0.56224,-1.81074 -0.56224,-0.63665 -1.55442,-0.63665 -1.11621,0 -1.73633,0.76067 -0.61185,0.76068 -0.61185,2.14974 0,1.52135 0.84336,2.3151 0.85163,0.79374 2.41432,0.79374 0.5457,0 1.07487,-0.0579 0.52916,-0.0661 1.07487,-0.17364 l 0.21497,1.53789 q -0.77721,0.14883 -1.42213,0.19017 -0.64492,0.0413 -1.14102,0.0413 z"
       transform="matrix(0.05722845,0,0,0.05722845,52.880764,51.121778)" />
  </g>
</svg>
