<?xml version="1.0" encoding="UTF-8" standalone="no"?>
<!-- Uploaded to: SVG Repo, www.svgrepo.com, Generator: SVG Repo Mixer Tools -->

<svg
   fill="#000000"
   height="17.181808"
   width="18"
   version="1.1"
   id="Layer_1"
   viewBox="0 0 11.52 10.996358"
   xml:space="preserve"
   sodipodi:docname="pawprint-paw-svgrepo-com.svg"
   inkscape:version="1.4 (86a8ad7, 2024-10-11)"
   xmlns:inkscape="http://www.inkscape.org/namespaces/inkscape"
   xmlns:sodipodi="http://sodipodi.sourceforge.net/DTD/sodipodi-0.dtd"
   xmlns="http://www.w3.org/2000/svg"
   xmlns:svg="http://www.w3.org/2000/svg"><defs
   id="defs10" /><sodipodi:namedview
   id="namedview10"
   pagecolor="#ffffff"
   bordercolor="#000000"
   borderopacity="0.25"
   inkscape:showpageshadow="2"
   inkscape:pageopacity="0.0"
   inkscape:pagecheckerboard="0"
   inkscape:deskcolor="#d1d1d1"
   inkscape:zoom="11.313709"
   inkscape:cx="37.653436"
   inkscape:cy="7.0268736"
   inkscape:window-width="2560"
   inkscape:window-height="1369"
   inkscape:window-x="-8"
   inkscape:window-y="-8"
   inkscape:window-maximized="1"
   inkscape:current-layer="Layer_1" />
<g
   id="g2"
   transform="matrix(0.0225,0,0,0.0225,0,-0.26181)"
   style="fill:#3f4739;fill-opacity:1">
	<g
   id="g1"
   style="fill:#3f4739;fill-opacity:1">
		<path
   d="m 174.545,11.636 c -32.582,0 -58.182,36.073 -58.182,81.455 0,45.382 25.6,81.455 58.182,81.455 32.582,0 58.182,-36.073 58.182,-81.455 0,-45.382 -25.6,-81.455 -58.182,-81.455 z m 0,139.637 c -18.618,0 -34.909,-26.764 -34.909,-58.182 0,-31.418 16.291,-58.182 34.909,-58.182 18.618,0 34.909,26.764 34.909,58.182 0.001,31.418 -16.29,58.182 -34.909,58.182 z"
   id="path1"
   style="fill:#3f4739;fill-opacity:1" />
	</g>
</g>
<g
   id="g4"
   transform="matrix(0.0225,0,0,0.0225,0,-0.26181)"
   style="fill:#3f4739;fill-opacity:1">
	<g
   id="g3"
   style="fill:#3f4739;fill-opacity:1">
		<path
   d="m 337.455,11.636 c -32.582,0 -58.182,36.073 -58.182,81.455 0,45.382 25.6,81.455 58.182,81.455 32.582,0 58.182,-36.073 58.182,-81.455 -10e-4,-45.382 -25.601,-81.455 -58.182,-81.455 z m 0,139.637 c -18.618,0 -34.909,-26.764 -34.909,-58.182 0,-31.418 16.291,-58.182 34.909,-58.182 18.618,0 34.909,26.764 34.909,58.182 0,31.418 -16.291,58.182 -34.909,58.182 z"
   id="path2"
   style="fill:#3f4739;fill-opacity:1" />
	</g>
</g>
<g
   id="g6"
   transform="matrix(0.0225,0,0,0.0225,0,-0.26181)"
   style="fill:#3f4739;fill-opacity:1">
	<g
   id="g5"
   style="fill:#3f4739;fill-opacity:1">
		<path
   d="m 453.818,162.909 c -32.582,0 -58.182,36.073 -58.182,81.455 0,45.382 25.6,81.455 58.182,81.455 32.582,0 58.182,-36.073 58.182,-81.455 0,-45.382 -25.6,-81.455 -58.182,-81.455 z m 0,139.636 c -18.618,0 -34.909,-26.764 -34.909,-58.182 0,-31.418 16.291,-58.182 34.909,-58.182 18.618,0 34.909,26.764 34.909,58.182 0,31.418 -16.291,58.182 -34.909,58.182 z"
   id="path4"
   style="fill:#3f4739;fill-opacity:1" />
	</g>
</g>
<g
   id="g8"
   transform="matrix(0.0225,0,0,0.0225,0,-0.26181)"
   style="fill:#3f4739;fill-opacity:1">
	<g
   id="g7"
   style="fill:#3f4739;fill-opacity:1">
		<path
   d="M 58.182,162.909 C 25.6,162.909 0,198.982 0,244.364 c 0,45.382 25.6,81.455 58.182,81.455 32.582,0 58.182,-36.073 58.182,-81.455 0,-45.382 -25.6,-81.455 -58.182,-81.455 z m 0,139.636 c -18.618,0 -34.909,-26.764 -34.909,-58.182 0,-31.418 16.291,-58.182 34.909,-58.182 18.618,0 34.909,26.764 34.909,58.182 0,31.418 -16.291,58.182 -34.909,58.182 z"
   id="path6"
   style="fill:#3f4739;fill-opacity:1" />
	</g>
</g>
<g
   id="g10"
   transform="matrix(0.0225,0,0,0.0225,0,-0.26181)"
   style="fill:#3f4739;fill-opacity:1">
	<g
   id="g9"
   style="fill:#3f4739;fill-opacity:1">
		<path
   d="M 394.473,336.291 372.364,325.818 C 357.237,318.836 345.6,303.709 340.946,286.254 l -6.982,-25.6 C 323.491,223.418 290.909,197.818 256,197.818 c -34.909,0 -67.491,25.6 -76.8,62.836 l -6.982,25.6 c -4.655,17.455 -16.291,32.582 -31.418,39.564 l -22.109,10.473 c -30.255,13.964 -48.873,45.382 -48.873,79.127 0,26.764 11.636,51.2 30.255,66.327 17.455,13.964 38.4,19.782 60.509,16.291 l 33.745,-5.818 c 8.146,-1.164 17.455,-4.655 25.6,-8.146 5.818,-2.327 8.145,-9.309 5.818,-15.127 -2.327,-5.818 -9.309,-8.145 -15.127,-5.818 -5.818,2.327 -12.8,4.655 -19.782,5.818 l -33.745,5.818 C 141.964,477.091 128,473.6 115.2,463.127 101.236,453.818 93.091,435.2 93.091,415.418 c 0,-25.6 13.964,-48.873 34.909,-58.182 l 22.109,-10.473 c 20.945,-10.473 37.236,-30.255 44.218,-54.691 l 6.982,-25.6 C 208.291,239.708 230.4,221.09 256,221.09 c 25.6,0 47.709,18.618 54.691,45.382 l 6.982,25.6 c 6.982,24.436 23.273,44.218 44.218,54.691 L 384,357.236 c 20.945,10.473 34.909,33.745 34.909,58.182 0,19.782 -8.146,37.236 -22.109,48.873 -11.636,10.473 -26.764,13.964 -41.891,11.636 l -33.745,-5.818 c -6.982,-1.164 -13.964,-3.491 -19.782,-5.818 -5.818,-2.327 -12.8,0 -15.127,5.818 -2.327,5.818 0,12.8 5.818,15.127 8.146,3.491 16.291,5.818 25.6,8.145 l 33.745,5.818 c 4.655,1.164 9.309,1.164 12.8,1.164 17.455,0 33.745,-5.818 47.709,-17.455 18.618,-16.291 30.255,-40.727 30.255,-67.491 0,-33.744 -18.618,-65.162 -47.709,-79.126 z"
   id="path8"
   style="fill:#3f4739;fill-opacity:1" />
	</g>
</g>
</svg>
